# xmcd
#
# Track frame offsets:
# 150
# 17093
# 36238
# 56833
# 73470
# 94231
# 106750
# 126516
# 149156
# 168418
# 190515
# 213962
#
# Disc length: 3002 seconds
#
# Revision: 1
# Processed by: cddbd v1.5.1PL0 Copyright (c) Steve Scherf et al.
# Submitted via: inCDius 2.0b9
#
DISCID=b80bb80c
DTITLE=Aaron Neville - Nature Boy: The Standards Album
DYEAR=1900
DGENRE=
TTITLE0=Summertime
TTITLE1=Blame It On My Youth
TTITLE2=The Very Thought Of You
TTITLE3=The Shadow Of Your Smile
TTITLE4=Cry Me A River
TTITLE5=Nature Boy
TTITLE6=Who Will Buy?
TTITLE7=Come Rain Or Come Shine
TTITLE8=Our Love Is Here To Stay
TTITLE9=In The Still Of The Night
TTITLE10=Since I Fell For You
TTITLE11=Danny Boy
EXTD=
EXTT0=
EXTT1=
EXTT2=
EXTT3=
EXTT4=
EXTT5=
EXTT6=
EXTT7=
EXTT8=
EXTT9=
EXTT10=
EXTT11=
PLAYORDER=
